<svg width="18" height="13" viewBox="0 0 18 13" fill="none" xmlns="http://www.w3.org/2000/svg">
<path d="M17.1 7.19988H0.9C0.405 7.19988 0 6.79488 0 6.29988C0 5.80488 0.405 5.39988 0.9 5.39988H17.1C17.595 5.39988 18 5.80488 18 6.29988C18 6.79488 17.595 7.19988 17.1 7.19988Z" fill="#2AAAE1"/>
<path d="M17.1 1.8H0.9C0.405 1.8 0 1.395 0 0.9C0 0.405 0.405 0 0.9 0H17.1C17.595 0 18 0.405 18 0.9C18 1.395 17.595 1.8 17.1 1.8Z" fill="#2AAAE1"/>
<path d="M17.1 12.6001H0.9C0.405 12.6001 0 12.1951 0 11.7001C0 11.2051 0.405 10.8001 0.9 10.8001H17.1C17.595 10.8001 18 11.2051 18 11.7001C18 12.1951 17.595 12.6001 17.1 12.6001Z" fill="#2AAAE1"/>
</svg>
