<svg width="92" height="92" viewBox="0 0 92 92" fill="none" xmlns="http://www.w3.org/2000/svg">
<g clip-path="url(#clip0_127_989)">
<path d="M34.3465 46.4163L34.3985 44.9155C34.3985 44.9155 34.2114 42.6111 36.8623 42.4368C39.5131 42.2625 39.3156 45.7289 39.3156 45.7289L39.2532 65.8784L39.1077 68.2507C39.1077 68.2507 38.6503 71.872 38.4008 72.2496C38.1513 72.6272 38.3904 72.298 38.3904 72.298C38.3904 72.298 37.4548 75.1737 37.1533 75.4545C37.1533 75.4545 36.0514 77.6331 34.5752 78.8241C33.099 80.015 32.5377 80.2571 32.5377 80.2571C32.5377 80.2571 30.864 81.2351 29.2111 81.5352C29.2111 81.5352 27.8701 81.9322 25.6662 81.9903C23.4623 82.0484 23.192 81.9419 23.192 81.9419C23.192 81.9419 20.9882 81.787 18.9818 80.9543C16.9755 80.1216 15.9151 79.2792 15.9151 79.2792C15.9151 79.2792 13.9295 77.943 12.7029 75.9774C11.4762 74.0118 11.3306 73.2663 11.3306 73.2663C11.3306 73.2663 10.447 70.8553 10.2495 68.9575C10.2495 68.9575 9.68813 62.0441 10.2495 60.0495C10.8109 58.0548 10.6445 53.9494 14.4597 47.8106C18.2749 41.6718 24.6578 38.4863 24.6578 38.4863C24.6578 38.4863 29.8764 35.6589 36.592 35.8816C43.3075 36.1043 46.6861 38.0796 46.6861 38.0796C46.6861 38.0796 51.9151 40.752 54.8778 45.1963C57.8406 49.6406 58.849 54.1528 58.849 54.1528C58.849 54.1528 59.2648 56.1571 60.741 56.2345C62.2172 56.312 76.0121 56.7283 75.0141 66.5949C74.0162 76.4615 65.7205 79.7923 65.7205 79.7923C65.7205 79.7923 59.3791 83.2781 50.6156 80.8574C41.8521 78.4368 43.3387 74.3507 43.3387 74.3507C43.3387 74.3507 44.659 71.0683 47.9336 73.915C51.2082 76.7617 55.9902 76.6745 55.9902 76.6745C55.9902 76.6745 63.9636 77.3039 67.2278 72.7724C70.4921 68.241 69.7956 63.4771 69.7956 63.4771C69.7956 63.4771 69.9619 60.9015 63.1528 60.95C62.4355 60.95 61.635 60.9887 60.741 61.0661C60.741 61.0661 58.0381 61.405 56.2189 59.2458C54.3997 57.0866 54.0982 55.3147 54.0982 55.3147C54.0982 55.3147 51.6136 48.1495 49.3162 46.0581C47.0188 43.9666 45.106 41.5944 38.3072 40.936C31.5085 40.2776 28.1092 42.3109 28.1092 42.3109C28.1092 42.3109 21.8718 44.4992 18.566 50.3475C18.566 50.3475 14.7092 57.0479 14.9275 62.6541C14.9275 62.6541 14.7508 70.6616 16.227 71.9881C16.227 71.9881 18.0254 76.4712 23.1401 76.9457C28.2547 77.4201 29.7205 76.2195 29.7205 76.2195C29.7205 76.2195 33.4317 75.135 34.1282 68.8316C34.8247 62.5282 34.3569 53.0102 34.3569 53.0102L34.3777 46.397L34.3465 46.4163Z" fill="white"/>
<path d="M37.0079 33.5871C37.0079 33.5871 37.0495 33.5871 37.0806 33.5871C38.2242 33.6258 39.2429 32.8899 39.4716 31.8442C39.7107 30.721 40.1785 29.1815 41.0518 27.4773C42.8398 23.9916 44.4511 22.1422 44.4511 22.1422C44.4511 22.1422 47.2475 19.005 49.6905 17.3009C49.6905 17.3009 50.6157 16.8458 50.9692 17.8044C51.3226 18.763 51.832 23.8173 51.832 23.8173C51.832 23.8173 52.1127 26.5865 55.4497 25.8022C58.7867 25.0179 61.8118 25.444 61.8118 25.444C61.8118 25.444 67.9764 25.657 71.1159 30.9727C71.1159 30.9727 73.0806 34.6521 73.0391 37.3633C72.9975 40.0744 74.0682 40.7522 74.0682 40.7522C74.0682 40.7522 76.9894 42.9114 76.8231 43.7635C76.6567 44.6156 76.6359 45.7678 74.9726 47.501C73.3093 49.2342 74.3489 50.8028 74.3489 50.8028C74.3489 50.8028 74.9726 52.4004 77.1245 51.8775C77.6027 51.7613 78.0186 51.4999 78.3304 51.1417C78.923 50.4542 80.0145 48.9631 81.4179 46.0002C83.5802 41.4203 79.0893 38.8641 79.0893 38.8641C79.0893 38.8641 77.925 38.1476 77.7483 35.5236C77.5715 32.8996 76.376 30.4886 76.376 30.4886C76.376 30.4886 75.4924 27.1675 70.3882 23.4881C70.3882 23.4881 66.3443 20.1185 57.3313 20.4574C57.3313 20.4574 56.2501 20.3315 56.1358 19.4117C56.0214 18.4918 55.1898 11.9367 55.1898 11.9367C55.1898 11.9367 54.7324 9.61287 51.5305 10.0873C51.2603 10.1261 51.0108 10.2229 50.7717 10.3488C49.7529 10.891 46.7486 12.6435 43.4531 16.1002C43.4531 16.1002 39.8043 19.4988 37.538 23.8173C35.2718 28.1357 34.8976 30.4112 34.8976 30.4112C34.8976 30.4112 34.8352 30.6048 34.7624 30.9243C34.4402 32.2799 35.5213 33.5677 37.0183 33.6064L37.0079 33.5871Z" fill="white"/>
</g>
<defs>
<clipPath id="clip0_127_989">
<rect width="72" height="72" fill="white" transform="translate(10 10)"/>
</clipPath>
</defs>
</svg>
